<?xml version="1.0" encoding="utf-8"?>
<!-- Generator: Adobe Illustrator 17.1.0, SVG Export Plug-In . SVG Version: 6.00 Build 0)  -->
<!DOCTYPE svg PUBLIC "-//W3C//DTD SVG 1.1//EN" "http://www.w3.org/Graphics/SVG/1.1/DTD/svg11.dtd">
<svg version="1.1" id="Layer_1" xmlns="http://www.w3.org/2000/svg" xmlns:xlink="http://www.w3.org/1999/xlink" x="0px" y="0px"
	 viewBox="0 0 289.675 204.046" enable-background="new 0 0 289.675 204.046" xml:space="preserve" width="318" height="232">
<g>
	<g opacity="0.84">
		<path fill="#AAAAAA" d="M141.673,2.358c55.699,0,100.843,45.151,100.843,100.849c0,55.686-45.144,100.839-100.843,100.839
			c-55.696,0-100.843-45.154-100.843-100.839C40.83,47.509,85.978,2.358,141.673,2.358z"/>
		<path fill="#AAAAAA" d="M141.673,30.803c39.984,0,72.4,32.417,72.4,72.404c0,39.978-32.416,72.394-72.4,72.394
			c-39.982,0-72.396-32.416-72.396-72.394C69.277,63.221,101.691,30.803,141.673,30.803z"/>
	</g>
	<path fill="#AAAAAA" d="M289.675,44.471c0-16.768-9.887-30.36-22.079-30.36c-12.19,0-22.076,13.593-22.076,30.36
		c0,14.787,7.69,27.093,17.872,29.79l-1.619,101.208c0,3.214,2.609,5.82,5.822,5.82s5.822-2.607,5.822-5.82l-1.594-101.21
		C281.995,71.54,289.675,59.246,289.675,44.471z"/>
	<path fill="#AAAAAA" d="M29.618,57.764l-1.495-43.423c0-0.794-0.642-1.437-1.437-1.437c-0.791,0-1.437,0.643-1.437,1.437v39.706
		C25.099,54.033,24.95,54,24.796,54h-3.098l-1.116-39.655c0.006-0.794-0.632-1.441-1.427-1.447
		c-0.792-0.004-1.441,0.634-1.445,1.429L17.46,54h-3.527l-0.739-39.696c-0.016-0.797-0.672-1.427-1.466-1.41
		c-0.794,0.013-1.423,0.668-1.412,1.462L9.696,54H6.706c-0.155,0-0.305,0.033-0.457,0.046V14.341c0-0.794-0.644-1.437-1.435-1.437
		c-0.795,0-1.441,0.643-1.441,1.437L1.885,57.764c-0.101,0.394-0.171,0.803-0.171,1.223v7.015c0,2.705,6.937,9.689,9.806,9.958
		l-1.594,99.508c0,3.214,2.607,5.82,5.822,5.82s5.822-2.607,5.822-5.82l-1.565-99.512c2.881-0.305,9.781-7.257,9.781-9.954v-7.015
		C29.786,58.566,29.718,58.157,29.618,57.764z"/>
</g>
<g>
	<g opacity="0.84">
		<path fill="#FFFFFF" d="M140.73,0.373c55.699,0,100.843,45.151,100.843,100.849c0,55.686-45.144,100.839-100.843,100.839
			c-55.696,0-100.843-45.154-100.843-100.839C39.887,45.524,85.034,0.373,140.73,0.373z"/>
		<path fill="#FFFFFF" d="M140.73,28.818c39.984,0,72.4,32.417,72.4,72.404c0,39.978-32.416,72.394-72.4,72.394
			c-39.982,0-72.396-32.416-72.396-72.394C68.334,61.236,100.748,28.818,140.73,28.818z"/>
	</g>
	<path fill="#FFFFFF" d="M288.732,42.485c0-16.768-9.887-30.36-22.079-30.36c-12.19,0-22.076,13.593-22.076,30.36
		c0,14.787,7.69,27.093,17.872,29.79l-1.619,101.208c0,3.214,2.609,5.82,5.822,5.82s5.822-2.607,5.822-5.82l-1.594-101.21
		C281.052,69.555,288.732,57.261,288.732,42.485z"/>
	<path fill="#FFFFFF" d="M28.674,55.778L27.18,12.356c0-0.794-0.642-1.437-1.437-1.437c-0.791,0-1.437,0.643-1.437,1.437v39.706
		c-0.15-0.014-0.3-0.046-0.453-0.046h-3.098L19.638,12.36c0.006-0.794-0.632-1.441-1.427-1.447
		c-0.792-0.004-1.441,0.634-1.445,1.429l-0.25,39.673H12.99L12.25,12.319c-0.016-0.797-0.672-1.427-1.466-1.41
		c-0.794,0.013-1.423,0.668-1.412,1.462l-0.62,39.644H5.763c-0.155,0-0.305,0.033-0.457,0.046V12.356
		c0-0.794-0.644-1.437-1.435-1.437c-0.795,0-1.441,0.643-1.441,1.437L0.941,55.778c-0.101,0.394-0.171,0.803-0.171,1.223v7.015
		c0,2.705,6.937,9.689,9.806,9.958l-1.594,99.508c0,3.214,2.607,5.82,5.822,5.82s5.822-2.607,5.822-5.82l-1.565-99.512
		c2.881-0.305,9.781-7.257,9.781-9.954v-7.015C28.843,56.581,28.774,56.172,28.674,55.778z"/>
</g>
<g>
	<g opacity="0.84">
		
			<radialGradient id="SVGID_1_" cx="56.3052" cy="-1.6243" r="100.8436" gradientTransform="matrix(0 -1 1 0 141.5834 157.1493)" gradientUnits="userSpaceOnUse">
			<stop  offset="0" style="stop-color:#BEBEBE"/>
			<stop  offset="0.2221" style="stop-color:#D6D6D6"/>
			<stop  offset="0.5031" style="stop-color:#ECECEC"/>
			<stop  offset="0.7685" style="stop-color:#FAFAFA"/>
			<stop  offset="1" style="stop-color:#FFFFFF"/>
		</radialGradient>
		<path fill="url(#SVGID_1_)" d="M139.959,0c55.699,0,100.843,45.151,100.843,100.849c0,55.686-45.144,100.839-100.843,100.839
			c-55.696,0-100.843-45.154-100.843-100.839C39.116,45.151,84.263,0,139.959,0z"/>
		<radialGradient id="SVGID_2_" cx="139.9609" cy="100.8441" r="72.3984" gradientUnits="userSpaceOnUse">
			<stop  offset="0" style="stop-color:#FFFFFF"/>
			<stop  offset="0.6013" style="stop-color:#FDFDFD"/>
			<stop  offset="0.8357" style="stop-color:#F6F6F6"/>
			<stop  offset="1" style="stop-color:#EBEBEB"/>
		</radialGradient>
		<path fill="url(#SVGID_2_)" d="M139.959,28.445c39.984,0,72.4,32.417,72.4,72.404c0,39.978-32.416,72.394-72.4,72.394
			c-39.982,0-72.396-32.416-72.396-72.394C67.563,60.863,99.977,28.445,139.959,28.445z"/>
	</g>
	<path fill="#FFFFFF" d="M287.961,42.113c0-16.768-9.887-30.36-22.079-30.36c-12.191,0-22.076,13.593-22.076,30.36
		c0,14.787,7.69,27.093,17.872,29.79L260.06,173.11c0,3.214,2.609,5.82,5.822,5.82c3.214,0,5.822-2.607,5.822-5.82l-1.594-101.21
		C280.281,69.182,287.961,56.888,287.961,42.113z"/>
	<path fill="#FFFFFF" d="M27.904,55.405l-1.495-43.423c0-0.794-0.642-1.437-1.437-1.437c-0.791,0-1.437,0.643-1.437,1.437v39.706
		c-0.15-0.014-0.3-0.046-0.453-0.046h-3.098l-1.116-39.655c0.006-0.794-0.632-1.441-1.427-1.447
		c-0.792-0.004-1.441,0.634-1.445,1.429l-0.25,39.673h-3.527L11.48,11.946c-0.016-0.797-0.672-1.427-1.466-1.41
		C9.22,10.55,8.59,11.205,8.602,11.998l-0.62,39.644H4.992c-0.155,0-0.305,0.033-0.457,0.046V11.983
		c0-0.794-0.644-1.437-1.435-1.437c-0.795,0-1.441,0.643-1.441,1.437L0.171,55.405C0.069,55.799,0,56.208,0,56.629v7.015
		c0,2.705,6.937,9.689,9.806,9.958L8.212,173.11c0,3.214,2.607,5.82,5.822,5.82s5.822-2.607,5.822-5.82l-1.565-99.512
		c2.881-0.305,9.781-7.257,9.781-9.954v-7.015C28.072,56.208,28.003,55.799,27.904,55.405z"/>
</g>
<path fill-rule="evenodd" clip-rule="evenodd" fill="#44AB4A" d="M125.773,64.261c0.57,0.133,1.134,0.312,1.711,0.391
	c1.614,0.222,3.244,0.334,4.846,0.616c2.081,0.367,4.163,0.776,6.203,1.323c1.318,0.354,2.711,0.678,3.68,1.816
	c0.457,0.535,0.407,0.814-0.274,0.997c-1.722,0.461-3.42,0.062-5.126-0.143c-0.715-0.086-1.436-0.121-2.153-0.193
	c-0.542-0.053-1.086-0.099-1.621-0.197c-3.291-0.603-6.591-0.316-9.891-0.12c-0.48,0.028-0.961,0.037-1.439,0.08
	c-1.577,0.14-3.151,0.313-4.73,0.431c-0.97,0.072-1.948,0.033-2.918,0.104c-2.301,0.168-4.651-0.093-6.873,0.793
	c-0.367,0.146-0.788,0.152-1.17,0.269c-0.138,0.043-0.236,0.221-0.352,0.337c0.14,0.125,0.263,0.325,0.423,0.362
	c1.687,0.398,3.372,0.818,5.076,1.13c0.98,0.18,1.995,0.162,2.993,0.255c0.725,0.068,1.448,0.164,2.171,0.261
	c1.291,0.173,2.581,0.356,3.871,0.536c0.1,0.014,0.197,0.047,0.297,0.058c2.051,0.229,4.102,0.462,6.155,0.681
	c0.814,0.087,1.631,0.14,2.446,0.217c0.148,0.014,0.364,0.02,0.428,0.113c0.381,0.553,0.915,0.382,1.429,0.357
	c1.763-0.085,3.525-0.165,5.287-0.233c0.262-0.01,0.526,0.053,0.789,0.082c0,0.089,0,0.178-0.001,0.267
	c-0.578,0.085-1.154,0.204-1.736,0.246c-0.932,0.067-1.876,0.023-2.799,0.146c-0.42,0.056-0.802,0.402-1.202,0.615
	c-0.129,0.069-0.253,0.178-0.389,0.194c-1.049,0.123-2.098,0.267-3.151,0.327c-1.502,0.087-3.007,0.114-4.512,0.155
	c-2.976,0.08-5.954,0.259-8.927,0.198c-3.511-0.072-7.004-0.437-10.346-1.656c-0.448-0.164-0.921-0.27-1.355-0.463
	c-0.523-0.232-0.884-0.557-0.935-1.241c-0.032-0.425-0.502-0.799-0.656-1.238c-0.118-0.335-0.056-0.736-0.059-1.107
	c-0.002-0.222,0.047-0.446,0.03-0.666c-0.022-0.311-0.228-0.708-0.103-0.912c0.403-0.653,0.799-1.477,1.421-1.793
	c1.587-0.806,3.27-1.451,4.966-2.005c0.994-0.325,2.081-0.407,3.135-0.498c2.287-0.197,4.581-0.319,6.869-0.504
	c0.256-0.021,0.494-0.253,0.74-0.388C120.607,64.261,123.19,64.261,125.773,64.261z"/>
<path fill-rule="evenodd" clip-rule="evenodd" fill="#44AB4A" d="M184.577,85.078c-0.85,0.101-1.697,0.227-2.549,0.299
	c-1.709,0.144-3.25,0.837-4.592,1.784c-0.712,0.503-1.063,1.551-1.515,2.386c-1.038,1.918-2.353,3.571-4.266,4.684
	c-0.675,0.393-1.345,0.801-2.045,1.144c-1.301,0.638-2.151,0.282-2.686-1.185c-0.315,0.487-0.573,0.919-0.865,1.327
	c-0.307,0.428-0.667,0.819-0.966,1.251c-0.247,0.356-0.544,0.587-0.939,0.329c-0.332-0.216-0.766-0.502-0.849-0.834
	c-0.341-1.358-0.195-2.657,0.475-3.956c0.524-1.014,0.961-2.057,1.859-2.796c0.972-0.798,1.934-1.624,2.988-2.301
	c1.07-0.688,2.238-1.231,3.381-1.802c1.689-0.842,3.515-1.253,5.378-1.273c1.844-0.02,3.691,0.188,5.535,0.309
	c0.553,0.036,1.104,0.116,1.656,0.176C184.577,84.774,184.577,84.926,184.577,85.078z M167.992,92.727
	c1.358-0.164,3.623-1.868,3.93-3.014C170.401,90.531,168.855,91.086,167.992,92.727z"/>
<path fill-rule="evenodd" clip-rule="evenodd" fill="#44AB4A" d="M105.703,77.965c-0.036,0.32-0.105,0.641-0.101,0.96
	c0.011,0.851-0.025,1.714,0.099,2.551c0.246,1.663,0.637,3.292,0.264,5.006c-0.162,0.745,0.004,1.561,0.021,2.344
	c0.041,1.844,0.085,3.687,0.124,5.531c0.088,4.194,0.117,8.39,0.292,12.58c0.066,1.573,0.558,3.124,0.7,4.699
	c0.173,1.907,0.211,3.828,0.254,5.744c0.035,1.563-0.011,3.128-0.016,4.693c-0.001,0.15-0.019,0.36,0.067,0.44
	c0.636,0.59,0.197,1.143-0.121,1.596c-0.495,0.705-1.085,1.351-1.685,1.974c-0.333,0.346-0.42,0.598-0.159,1.047
	c0.709,1.223,1.914,2.003,3.13,2.021c2.128,0.034,3.98,0.965,5.99,1.329c2.119,0.383,4.227,0.697,6.387,0.67
	c1.23-0.015,2.461,0.14,3.692,0.192c0.778,0.032,1.564-0.043,2.335,0.032c1.124,0.109,2.235,0.344,3.358,0.457
	c0.614,0.062,1.243,0.001,1.863-0.037c0.505-0.031,1.033-0.205,1.141,0.581c0.021,0.151,0.313,0.255,0.461,0.401
	c0.151,0.149,0.355,0.309,0.386,0.489c0.021,0.121-0.192,0.341-0.349,0.424c-1.457,0.769-2.976,1.415-4.642,1.446
	c-1.758,0.033-3.52-0.086-5.28-0.116c-0.208-0.004-0.566,0.091-0.603,0.215c-0.156,0.516-0.479,0.493-0.89,0.424
	c-0.297-0.049-0.605-0.04-0.908-0.038c-3.571,0.019-7.115-0.252-10.587-1.121c-1.679-0.42-3.172-1.263-4.559-2.306
	c-1.304-0.981-2.561-1.964-2.973-3.676c-0.056-0.234-0.449-0.493-0.724-0.548c-1.099-0.218-1.994-1.217-1.906-2.351
	c0.188-2.408,0.458-4.81,0.641-7.218c0.137-1.81,0.187-3.627,0.279-5.44c0.067-1.309,0.17-2.616,0.198-3.925
	c0.036-1.64,0.017-3.281,0.014-4.922c-0.005-2.298-0.022-4.596-0.024-6.893c-0.002-2.149-0.017-4.298,0.021-6.446
	c0.02-1.158,0.183-2.313,0.208-3.47c0.041-1.954,0.041-3.91,0.027-5.865c-0.013-1.82,0.008-3.62,1.027-5.239
	c0.359-0.57,0.597-0.62,0.981-0.045c0.234,0.35,0.325,0.797,0.559,1.147c0.19,0.285,0.498,0.492,0.753,0.734
	C105.533,78.01,105.618,77.988,105.703,77.965z"/>
<path fill-rule="evenodd" clip-rule="evenodd" fill="#44AB4A" d="M166.52,98.195c1.641,0.579,3.055-0.175,4.54-0.382
	c1.235-0.172,2.539-0.163,3.722,0.468c0.354,0.189,0.73,0.362,1.117,0.462c1.184,0.305,2.037,1.106,2.754,1.992
	c0.979,1.21,1.842,2.519,2.699,3.822c0.701,1.066,0.774,2.311,0.82,3.546c0.038,1.008,0.182,2.027,0.078,3.021
	c-0.209,2.011-0.174,4.031-0.815,6.024c-0.615,1.915-1.173,3.839-2.058,5.65c-1.411,2.888-2.989,5.676-5.339,7.924
	c-2.093,2.003-4.371,3.77-6.822,5.333c-0.868,0.553-1.515,1.45-2.273,2.18c-0.701,0.677-1.368,1.402-2.136,1.994
	c-0.872,0.673-1.855,1.2-2.758,1.834c-0.476,0.334-0.869,0.749-1.548,0.611c-0.178-0.036-0.407,0.26-0.633,0.356
	c-0.166,0.071-0.465,0.149-0.526,0.075c-0.118-0.14-0.21-0.442-0.134-0.58c0.277-0.508,0.579-1.017,0.958-1.45
	c1.277-1.459,2.67-2.824,3.861-4.347c0.634-0.81,0.936-1.877,1.404-2.821c0.286-0.577,0.536-1.188,0.918-1.697
	c0.748-0.999,1.577-1.937,2.372-2.9c0.08-0.098,0.182-0.186,0.235-0.297c0.76-1.604,2.274-2.544,3.371-3.849
	c0.63-0.749,1.182-1.564,1.783-2.339c0.582-0.752,1.241-1.45,1.758-2.243c0.976-1.496,1.543-3.158,1.886-4.917
	c0.177-0.908,0.629-1.76,0.839-2.664c0.226-0.972,0.446-1.978,0.43-2.965c-0.021-1.275-0.131-2.59-0.486-3.804
	c-0.263-0.9-0.893-1.741-1.518-2.471c-0.545-0.637-1.303-1.096-1.988-1.607c-0.89-0.664-1.854-0.9-2.989-0.684
	c-1.205,0.229-2.476,0.15-3.66,0.441c-1.058,0.261-2.053,0.808-3.043,1.297c-0.561,0.278-1.018,0.775-1.588,1.02
	c-0.399,0.171-0.964,0.218-1.349,0.061c-0.23-0.094-0.369-0.691-0.356-1.054c0.046-1.271,0.514-2.376,1.642-3.066
	c0.942-0.576,1.9-1.144,2.908-1.585C165.201,98.322,165.914,98.309,166.52,98.195z"/>
<path fill-rule="evenodd" clip-rule="evenodd" fill="#44AB4A" d="M140.838,111.598c-0.239,1.889-0.521,3.773-0.709,5.667
	c-0.325,3.267-0.146,6.456,1.744,9.315c0.584,0.884,1.201,1.747,1.734,2.66c0.132,0.225,0,0.605-0.011,0.913
	c-0.268-0.128-0.634-0.184-0.789-0.396c-1.176-1.606-2.275-3.269-3.473-4.859c-0.675-0.895-1.572-1.626-2.218-2.538
	c-0.573-0.811-1-1.745-1.375-2.672c-0.319-0.79-0.472-1.648-0.697-2.476c-0.046-0.171-0.122-0.342-0.124-0.514
	c-0.03-2.694-0.223-5.403-0.009-8.078c0.131-1.636,0.835-3.242,1.392-4.822c0.289-0.82,0.803-1.563,1.24-2.327
	c0.855-1.492,1.962-2.723,3.545-3.496c0.513-0.251,0.923-0.713,1.435-0.969c0.852-0.427,1.724-0.847,2.633-1.118
	c0.788-0.235,1.635-0.287,2.462-0.36c0.309-0.027,0.63,0.125,0.949,0.173c0.29,0.044,0.584,0.068,0.878,0.081
	c0.592,0.028,1.2-0.034,1.774,0.08c1.029,0.204,2.089,0.391,3.043,0.8c1.528,0.656,2.954,1.532,4.025,2.857
	c0.17,0.211,0.379,0.65,0.291,0.76c-0.229,0.287-0.603,0.609-0.937,0.63c-0.852,0.054-1.716-0.028-2.571-0.091
	c-2.304-0.17-4.58,0.025-6.851,0.424c-1.023,0.18-2.114,0.205-2.873,1.012c-1.601,1.703-3.24,3.385-3.752,5.815
	c-0.247,1.175-0.645,2.318-0.974,3.475C140.693,111.563,140.765,111.581,140.838,111.598z"/>
<path fill-rule="evenodd" clip-rule="evenodd" fill="#44AB4A" d="M147.664,77.16c0,1.948,0.023,3.896-0.013,5.843
	c-0.012,0.623-0.22,1.241-0.265,1.866c-0.134,1.837-0.182,3.681-0.368,5.512c-0.072,0.71-0.394,1.401-0.657,2.08
	c-0.076,0.196-0.341,0.319-0.518,0.475c-0.145-0.183-0.388-0.352-0.417-0.552c-0.155-1.093-0.264-2.194-0.378-3.293
	c-0.184-1.772-0.403-3.542-0.521-5.319c-0.077-1.155,0.003-2.32,0.002-3.48c-0.002-1.639-0.148-3.292,0.015-4.914
	c0.18-1.791-0.049-3.649,0.704-5.367c0.081-0.185,0.167-0.37,0.271-0.542c0.502-0.824,1.278-0.85,1.664,0.042
	c0.3,0.694,0.443,1.499,0.471,2.261c0.066,1.794,0.021,3.591,0.021,5.387C147.672,77.16,147.668,77.16,147.664,77.16z"/>
<path fill-rule="evenodd" clip-rule="evenodd" fill="#44AB4A" d="M161.379,96.213c-0.142,0.465-0.224,0.967-0.445,1.398
	c-0.294,0.575-0.898,0.582-1.285,0.066c-0.135-0.18-0.276-0.382-0.328-0.595c-0.415-1.727-1.479-3.127-2.354-4.613
	c-0.946-1.607-2-3.151-3.039-4.701c-0.184-0.275-0.548-0.422-0.784-0.671c-0.152-0.16-0.22-0.399-0.325-0.603
	c0.201-0.05,0.45-0.203,0.596-0.135c1.243,0.58,2.783,0.431,3.808,1.543c0.46,0.499,0.995,0.943,1.382,1.492
	c1.138,1.615,2.103,3.323,2.465,5.305C161.158,95.181,161.266,95.66,161.379,96.213z"/>
</svg>
