<?xml version="1.0" encoding="utf-8"?>
<!-- Generator: Adobe Illustrator 17.1.0, SVG Export Plug-In . SVG Version: 6.00 Build 0)  -->
<!DOCTYPE svg PUBLIC "-//W3C//DTD SVG 1.1//EN" "http://www.w3.org/Graphics/SVG/1.1/DTD/svg11.dtd">
<svg version="1.1" id="Layer_1" xmlns="http://www.w3.org/2000/svg" xmlns:xlink="http://www.w3.org/1999/xlink" x="0px" y="0px"
	 viewBox="2.9 85 606.2 622" enable-background="new 2.9 85 606.2 622" xml:space="preserve"  width="68" height="68">
<g display="none">
	
		<circle display="inline" fill="#44AB4A" stroke="#E0E1E0" stroke-width="13" stroke-miterlimit="10" cx="306.9" cy="404.7" r="295.7"/>
	
		<path display="inline" fill="#FFFFFF" stroke="#39793E" stroke-width="13" stroke-linecap="round" stroke-linejoin="round" stroke-miterlimit="10" d="
		M195.3,569.6c0-18.3,0-316.2,0-316.2s-0.4-13.9,13.7-13.7c17.6,0.2,246.3,0,246.3,0s16-0.2,16,13.4c0,14.7,0,277.3,0,277.3
		s2.3,39.2-33,39.2s-242.1,0-242.1,0L195.3,569.6L195.3,569.6z"/>
	<rect x="146.4" y="312.1" display="inline" fill="#FFFFFF" width="40.9" height="253.6"/>
	<path display="inline" fill="#FFFFFF" d="M178,542.8c0,14.8-12,26.9-26.9,26.9l0,0c-14.8,0-26.9-12-26.9-26.9V339
		c0-14.8,12-26.9,26.9-26.9l0,0c14.8,0,26.9,12,26.9,26.9V542.8z"/>
	
		<path display="inline" fill="none" stroke="#39793E" stroke-width="12" stroke-linecap="round" stroke-linejoin="round" stroke-miterlimit="10" d="
		M159.3,505.7c0-25.5,0-162.6,0-162.6s1.7-30.9-17.7-30.9c-16.8,0-20,21.1-20,29l0,184.1c0,0-3.5,43.6,46.4,44.4h32.5"/>
	
		<line display="inline" fill="none" stroke="#39793E" stroke-width="12" stroke-linecap="round" stroke-linejoin="round" stroke-miterlimit="10" x1="146.4" y1="312" x2="190.8" y2="312"/>
	
		<line display="inline" fill="none" stroke="#39793E" stroke-width="9" stroke-linecap="round" stroke-linejoin="round" stroke-miterlimit="10" x1="228.4" y1="313.9" x2="442.9" y2="313.9"/>
	
		<line display="inline" fill="none" stroke="#39793E" stroke-width="9" stroke-linecap="round" stroke-linejoin="round" stroke-miterlimit="10" x1="228.4" y1="280.7" x2="442.9" y2="280.7"/>
	
		<line display="inline" fill="none" stroke="#39793E" stroke-width="9" stroke-linecap="round" stroke-linejoin="round" stroke-miterlimit="10" x1="228.4" y1="491" x2="442.9" y2="491"/>
	
		<line display="inline" fill="none" stroke="#39793E" stroke-width="9" stroke-linecap="round" stroke-linejoin="round" stroke-miterlimit="10" x1="228.4" y1="524.3" x2="442.9" y2="524.3"/>
	
		<line display="inline" fill="none" stroke="#39793E" stroke-width="9" stroke-linecap="round" stroke-linejoin="round" stroke-miterlimit="10" x1="335.6" y1="355.8" x2="442.9" y2="355.8"/>
	
		<line display="inline" fill="none" stroke="#39793E" stroke-width="9" stroke-linecap="round" stroke-linejoin="round" stroke-miterlimit="10" x1="335.6" y1="387.2" x2="442.9" y2="387.2"/>
	
		<line display="inline" fill="none" stroke="#39793E" stroke-width="9" stroke-linecap="round" stroke-linejoin="round" stroke-miterlimit="10" x1="335.6" y1="420.5" x2="442.9" y2="420.5"/>
	
		<line display="inline" fill="none" stroke="#39793E" stroke-width="9" stroke-linecap="round" stroke-linejoin="round" stroke-miterlimit="10" x1="335.6" y1="455.8" x2="442.9" y2="455.8"/>
	<path display="inline" fill="none" stroke="#39793E" stroke-width="9" stroke-miterlimit="10" d="M309.6,441.4
		c0,7.9-5.1,14.4-11.4,14.4h-58.5c-6.3,0-11.4-6.4-11.4-14.4v-73.8c0-7.9,5.1-14.4,11.4-14.4h58.5c6.3,0,11.4,6.4,11.4,14.4V441.4z"
		/>
</g>
<g display="none">
	<path display="inline" fill="#44AB4A" stroke="#E0E1E0" stroke-width="13" stroke-miterlimit="10" d="M499.9,257.4
		c-95.3-105.5-258.1-113.7-363.6-18.3S22.7,497.2,118,602.7c85.6,94.7,225.5,111,329.5,44.4l93.5,37.7L511,589.7
		C587.6,492.9,585.5,352.1,499.9,257.4z"/>
	
		<path display="inline" fill="#FFFFFF" stroke="#39793E" stroke-width="10" stroke-linecap="round" stroke-linejoin="round" stroke-miterlimit="10" d="
		M437.9,589.8V483.3c0-19.1-15.5-34.5-34.5-34.5H213.6c-19.1,0-34.5,15.5-34.5,34.5v108.9C309,680.6,437.9,589.8,437.9,589.8z"/>
	
		<circle display="inline" fill="#FFFFFF" stroke="#39793E" stroke-width="11" stroke-linecap="round" stroke-linejoin="round" stroke-miterlimit="10" cx="307.1" cy="332.9" r="84.7"/>
	
		<line display="inline" fill="none" stroke="#39793E" stroke-width="11" stroke-linecap="round" stroke-linejoin="round" stroke-miterlimit="10" x1="222.3" y1="534" x2="222.3" y2="614"/>
	
		<line display="inline" fill="none" stroke="#E0E1E0" stroke-width="13" stroke-linecap="round" stroke-linejoin="round" stroke-miterlimit="10" x1="309" y1="91.5" x2="309" y2="134.2"/>
	
		<line display="inline" fill="none" stroke="#E0E1E0" stroke-width="13" stroke-linecap="round" stroke-linejoin="round" stroke-miterlimit="10" x1="254.3" y1="94" x2="275.5" y2="135.2"/>
	
		<line display="inline" fill="none" stroke="#E0E1E0" stroke-width="13" stroke-linecap="round" stroke-linejoin="round" stroke-miterlimit="10" x1="365.6" y1="93.4" x2="344.4" y2="134.6"/>
	
		<line display="inline" fill="none" stroke="#39793E" stroke-width="11" stroke-linecap="round" stroke-linejoin="round" stroke-miterlimit="10" x1="391.8" y1="534" x2="391.8" y2="612.5"/>
</g>
<circle display="none" fill="#44AB4A" stroke="#E0E1E0" stroke-width="13" stroke-miterlimit="10" cx="303.9" cy="398.5" r="295.7"/>
<path display="none" fill="#FFFFFF" stroke="#3C7940" stroke-width="13" stroke-linecap="round" stroke-linejoin="round" stroke-miterlimit="10" d="
	M468.5,406.1c11.1-17.8,11.1-27.6,11.1-43.3c0-49.6-40.2-89.8-89.8-89.8c-40,0-73.9,26.2-85.5,62.3c-10.7-37.6-45.3-65.2-86.4-65.2
	c-49.6,0-89.8,40.2-89.8,89.8c0,17.5,5,33.8,13.6,47.6C154,431.5,284.5,553,284.5,553c11.3,11.3,29.5,11.3,40.8,0
	C325.3,553,442.5,446.9,468.5,406.1z"/>
<circle fill="#DE4726" stroke="#E0E1E0" stroke-width="13" stroke-miterlimit="10" cx="305.1" cy="392.5" r="295.7"/>
<path fill="#FFFFFF" stroke="#982F1F" stroke-width="13" stroke-miterlimit="10" d="M425.8,340.2h-68.4v-68.4
	c0-17.9-18-32.5-40.2-32.5h-24.1c-22.2,0-40.2,14.5-40.2,32.5v68.4h-68.4c-17.9,0-32.5,18-32.5,40.2v24.1
	c0,22.2,14.5,40.2,32.5,40.2h68.4v68.4c0,17.9,18,32.5,40.2,32.5h24.1c22.2,0,40.2-14.5,40.2-32.5v-68.4h68.4
	c17.9,0,32.5-18,32.5-40.2v-24.1C458.3,358.2,443.7,340.2,425.8,340.2z"/>
</svg>
